<svg xmlns="http://www.w3.org/2000/svg" height="48" viewBox="0 -960 960 960" width="48"><path d="m316-68-60-103-119-25q-19-3-29.5-17.125T100-245l14-115.704L38-451q-10-12.39-10-29.195T38-510l76-88.297L100-714q-3-17.75 7.5-31.875T137-764l119.31-24.197L316-892q8.88-14.562 25.92-20.281Q358.96-918 376-911l104 49 105-49q16-5 33.056-.818Q635.111-907.636 644-893l60.69 104.803L823-764q19 4 29.5 18.125T860-714l-14 115.703L922-510q10 13.39 10 30.195T922-451l-76 90.296L860-245q3 17.75-7.5 31.875T823-196l-118 25-61 104q-8.889 14.636-25.944 18.818Q601-44 585-49L480-98 376-49q-17 5-34.056.318Q324.889-53.364 316-68Zm61-83 103-44 106 44 65-96 112-29-11-116 77-88-77-90 11-116-112-27-66.659-96-104.159 43.458L374-809l-64.718 96.241L198-686.448 208-570l-77 90 77 88-10 118.462 111.266 26.307L377-151Zm103-329Zm-43 41-69-73q-10.25-12-25.125-11.5T317-514q-12 12.511-12 27.256Q305-472 317-461l88 86q12.364 15 32.182 15T470-375l174-172q10-9 10-24.5T643-598q-11-8-25-8t-23 10L437-439Z"></path></svg>