<svg xmlns="http://www.w3.org/2000/svg" width="264" height="264" viewbox="0 0 264 264" preserveAspectRatio="none"><rect x="0" y="0" width="100%" height="100%" fill="rgb(57, 74, 149)" /><g fill="#ddd" stroke="#000" stroke-opacity="0.02" style="fill-opacity:0.124;" transform="translate(-22, -33)" ><rect x="22" y="0" width="22" height="66" /><rect x="0" y="22" width="66" height="22" /></g><g fill="#ddd" stroke="#000" stroke-opacity="0.02" style="fill-opacity:0.124;" transform="translate(242, -33)" ><rect x="22" y="0" width="22" height="66" /><rect x="0" y="22" width="66" height="22" /></g><g fill="#ddd" stroke="#000" stroke-opacity="0.02" style="fill-opacity:0.124;" transform="translate(-22, 231)" ><rect x="22" y="0" width="22" height="66" /><rect x="0" y="22" width="66" height="22" /></g><g fill="#ddd" stroke="#000" stroke-opacity="0.02" style="fill-opacity:0.124;" transform="translate(242, 231)" ><rect x="22" y="0" width="22" height="66" /><rect x="0" y="22" width="66" height="22" /></g><g fill="#222" stroke="#000" stroke-opacity="0.02" style="fill-opacity:0.11533333333333;" transform="translate(22, -33)" ><rect x="22" y="0" width="22" height="66" /><rect x="0" y="22" width="66" height="22" /></g><g fill="#222" stroke="#000" stroke-opacity="0.02" style="fill-opacity:0.11533333333333;" transform="translate(22, 231)" ><rect x="22" y="0" width="22" height="66" /><rect x="0" y="22" width="66" height="22" /></g><g fill="#ddd" stroke="#000" stroke-opacity="0.02" style="fill-opacity:0.089333333333333;" transform="translate(66, -33)" ><rect x="22" y="0" width="22" height="66" /><rect x="0" y="22" width="66" height="22" /></g><g fill="#ddd" stroke="#000" stroke-opacity="0.02" style="fill-opacity:0.089333333333333;" transform="translate(66, 231)" ><rect x="22" y="0" width="22" height="66" /><rect x="0" y="22" width="66" height="22" /></g><g fill="#222" stroke="#000" stroke-opacity="0.02" style="fill-opacity:0.028666666666667;" transform="translate(110, -33)" ><rect x="22" y="0" width="22" height="66" /><rect x="0" y="22" width="66" height="22" /></g><g fill="#222" stroke="#000" stroke-opacity="0.02" style="fill-opacity:0.028666666666667;" transform="translate(110, 231)" ><rect x="22" y="0" width="22" height="66" /><rect x="0" y="22" width="66" height="22" /></g><g fill="#ddd" stroke="#000" stroke-opacity="0.02" style="fill-opacity:0.037333333333333;" transform="translate(154, -33)" ><rect x="22" y="0" width="22" height="66" /><rect x="0" y="22" width="66" height="22" /></g><g fill="#ddd" stroke="#000" stroke-opacity="0.02" style="fill-opacity:0.037333333333333;" transform="translate(154, 231)" ><rect x="22" y="0" width="22" height="66" /><rect x="0" y="22" width="66" height="22" /></g><g fill="#ddd" stroke="#000" stroke-opacity="0.02" style="fill-opacity:0.14133333333333;" transform="translate(198, -33)" ><rect x="22" y="0" width="22" height="66" /><rect x="0" y="22" width="66" height="22" /></g><g fill="#ddd" stroke="#000" stroke-opacity="0.02" style="fill-opacity:0.14133333333333;" transform="translate(198, 231)" ><rect x="22" y="0" width="22" height="66" /><rect x="0" y="22" width="66" height="22" /></g><g fill="#ddd" stroke="#000" stroke-opacity="0.02" style="fill-opacity:0.14133333333333;" transform="translate(0, 11)" ><rect x="22" y="0" width="22" height="66" /><rect x="0" y="22" width="66" height="22" /></g><g fill="#ddd" stroke="#000" stroke-opacity="0.02" style="fill-opacity:0.14133333333333;" transform="translate(264, 11)" ><rect x="22" y="0" width="22" height="66" /><rect x="0" y="22" width="66" height="22" /></g><g fill="#ddd" stroke="#000" stroke-opacity="0.02" style="fill-opacity:0.037333333333333;" transform="translate(44, 11)" ><rect x="22" y="0" width="22" height="66" /><rect x="0" y="22" width="66" height="22" /></g><g fill="#222" stroke="#000" stroke-opacity="0.02" style="fill-opacity:0.11533333333333;" transform="translate(88, 11)" ><rect x="22" y="0" width="22" height="66" /><rect x="0" y="22" width="66" height="22" /></g><g fill="#ddd" stroke="#000" stroke-opacity="0.02" style="fill-opacity:0.14133333333333;" transform="translate(132, 11)" ><rect x="22" y="0" width="22" height="66" /><rect x="0" y="22" width="66" height="22" /></g><g fill="#ddd" stroke="#000" stroke-opacity="0.02" style="fill-opacity:0.14133333333333;" transform="translate(176, 11)" ><rect x="22" y="0" width="22" height="66" /><rect x="0" y="22" width="66" height="22" /></g><g fill="#222" stroke="#000" stroke-opacity="0.02" style="fill-opacity:0.098;" transform="translate(220, 11)" ><rect x="22" y="0" width="22" height="66" /><rect x="0" y="22" width="66" height="22" /></g><g fill="#222" stroke="#000" stroke-opacity="0.02" style="fill-opacity:0.098;" transform="translate(-22, 55)" ><rect x="22" y="0" width="22" height="66" /><rect x="0" y="22" width="66" height="22" /></g><g fill="#222" stroke="#000" stroke-opacity="0.02" style="fill-opacity:0.098;" transform="translate(242, 55)" ><rect x="22" y="0" width="22" height="66" /><rect x="0" y="22" width="66" height="22" /></g><g fill="#ddd" stroke="#000" stroke-opacity="0.02" style="fill-opacity:0.10666666666667;" transform="translate(22, 55)" ><rect x="22" y="0" width="22" height="66" /><rect x="0" y="22" width="66" height="22" /></g><g fill="#222" stroke="#000" stroke-opacity="0.02" style="fill-opacity:0.063333333333333;" transform="translate(66, 55)" ><rect x="22" y="0" width="22" height="66" /><rect x="0" y="22" width="66" height="22" /></g><g fill="#222" stroke="#000" stroke-opacity="0.02" style="fill-opacity:0.13266666666667;" transform="translate(110, 55)" ><rect x="22" y="0" width="22" height="66" /><rect x="0" y="22" width="66" height="22" /></g><g fill="#222" stroke="#000" stroke-opacity="0.02" style="fill-opacity:0.080666666666667;" transform="translate(154, 55)" ><rect x="22" y="0" width="22" height="66" /><rect x="0" y="22" width="66" height="22" /></g><g fill="#ddd" stroke="#000" stroke-opacity="0.02" style="fill-opacity:0.037333333333333;" transform="translate(198, 55)" ><rect x="22" y="0" width="22" height="66" /><rect x="0" y="22" width="66" height="22" /></g><g fill="#222" stroke="#000" stroke-opacity="0.02" style="fill-opacity:0.15;" transform="translate(0, 99)" ><rect x="22" y="0" width="22" height="66" /><rect x="0" y="22" width="66" height="22" /></g><g fill="#222" stroke="#000" stroke-opacity="0.02" style="fill-opacity:0.15;" transform="translate(264, 99)" ><rect x="22" y="0" width="22" height="66" /><rect x="0" y="22" width="66" height="22" /></g><g fill="#ddd" stroke="#000" stroke-opacity="0.02" style="fill-opacity:0.089333333333333;" transform="translate(44, 99)" ><rect x="22" y="0" width="22" height="66" /><rect x="0" y="22" width="66" height="22" /></g><g fill="#ddd" stroke="#000" stroke-opacity="0.02" style="fill-opacity:0.037333333333333;" transform="translate(88, 99)" ><rect x="22" y="0" width="22" height="66" /><rect x="0" y="22" width="66" height="22" /></g><g fill="#222" stroke="#000" stroke-opacity="0.02" style="fill-opacity:0.11533333333333;" transform="translate(132, 99)" ><rect x="22" y="0" width="22" height="66" /><rect x="0" y="22" width="66" height="22" /></g><g fill="#ddd" stroke="#000" stroke-opacity="0.02" style="fill-opacity:0.14133333333333;" transform="translate(176, 99)" ><rect x="22" y="0" width="22" height="66" /><rect x="0" y="22" width="66" height="22" /></g><g fill="#222" stroke="#000" stroke-opacity="0.02" style="fill-opacity:0.15;" transform="translate(220, 99)" ><rect x="22" y="0" width="22" height="66" /><rect x="0" y="22" width="66" height="22" /></g><g fill="#ddd" stroke="#000" stroke-opacity="0.02" style="fill-opacity:0.10666666666667;" transform="translate(-22, 143)" ><rect x="22" y="0" width="22" height="66" /><rect x="0" y="22" width="66" height="22" /></g><g fill="#ddd" stroke="#000" stroke-opacity="0.02" style="fill-opacity:0.10666666666667;" transform="translate(242, 143)" ><rect x="22" y="0" width="22" height="66" /><rect x="0" y="22" width="66" height="22" /></g><g fill="#ddd" stroke="#000" stroke-opacity="0.02" style="fill-opacity:0.124;" transform="translate(22, 143)" ><rect x="22" y="0" width="22" height="66" /><rect x="0" y="22" width="66" height="22" /></g><g fill="#222" stroke="#000" stroke-opacity="0.02" style="fill-opacity:0.080666666666667;" transform="translate(66, 143)" ><rect x="22" y="0" width="22" height="66" /><rect x="0" y="22" width="66" height="22" /></g><g fill="#222" stroke="#000" stroke-opacity="0.02" style="fill-opacity:0.046;" transform="translate(110, 143)" ><rect x="22" y="0" width="22" height="66" /><rect x="0" y="22" width="66" height="22" /></g><g fill="#222" stroke="#000" stroke-opacity="0.02" style="fill-opacity:0.028666666666667;" transform="translate(154, 143)" ><rect x="22" y="0" width="22" height="66" /><rect x="0" y="22" width="66" height="22" /></g><g fill="#ddd" stroke="#000" stroke-opacity="0.02" style="fill-opacity:0.037333333333333;" transform="translate(198, 143)" ><rect x="22" y="0" width="22" height="66" /><rect x="0" y="22" width="66" height="22" /></g><g fill="#ddd" stroke="#000" stroke-opacity="0.02" style="fill-opacity:0.072;" transform="translate(0, 187)" ><rect x="22" y="0" width="22" height="66" /><rect x="0" y="22" width="66" height="22" /></g><g fill="#ddd" stroke="#000" stroke-opacity="0.02" style="fill-opacity:0.072;" transform="translate(264, 187)" ><rect x="22" y="0" width="22" height="66" /><rect x="0" y="22" width="66" height="22" /></g><g fill="#222" stroke="#000" stroke-opacity="0.02" style="fill-opacity:0.080666666666667;" transform="translate(44, 187)" ><rect x="22" y="0" width="22" height="66" /><rect x="0" y="22" width="66" height="22" /></g><g fill="#ddd" stroke="#000" stroke-opacity="0.02" style="fill-opacity:0.037333333333333;" transform="translate(88, 187)" ><rect x="22" y="0" width="22" height="66" /><rect x="0" y="22" width="66" height="22" /></g><g fill="#222" stroke="#000" stroke-opacity="0.02" style="fill-opacity:0.028666666666667;" transform="translate(132, 187)" ><rect x="22" y="0" width="22" height="66" /><rect x="0" y="22" width="66" height="22" /></g><g fill="#ddd" stroke="#000" stroke-opacity="0.02" style="fill-opacity:0.14133333333333;" transform="translate(176, 187)" ><rect x="22" y="0" width="22" height="66" /><rect x="0" y="22" width="66" height="22" /></g><g fill="#ddd" stroke="#000" stroke-opacity="0.02" style="fill-opacity:0.072;" transform="translate(220, 187)" ><rect x="22" y="0" width="22" height="66" /><rect x="0" y="22" width="66" height="22" /></g></svg>