<svg xmlns="http://www.w3.org/2000/svg" width="32" height="32" viewBox="0 0 32 32" fill="none"><path fill-rule="evenodd" clip-rule="evenodd" d="M19.9534 19.0066H21.0067L27.66 25.6733L25.6734 27.66L19.0067 21.0066V19.9533L18.6467 19.58C17.1267 20.8866 15.1534 21.6733 13.0067 21.6733C8.22003 21.6733 4.34003 17.7933 4.34003 13.0066C4.34003 8.21997 8.22003 4.33997 13.0067 4.33997C17.7934 4.33997 21.6734 8.21997 21.6734 13.0066C21.6734 15.1533 20.8867 17.1266 19.58 18.6466L19.9534 19.0066ZM7.00669 13.0066C7.00669 16.3266 9.68669 19.0066 13.0067 19.0066C16.3267 19.0066 19.0067 16.3266 19.0067 13.0066C19.0067 9.68663 16.3267 7.00663 13.0067 7.00663C9.68669 7.00663 7.00669 9.68663 7.00669 13.0066Z" fill="#0C0D0E"></path></svg>